<svg id="Capa_1" enable-background="new 0 0 512 512" height="512" viewBox="0 0 512 512" width="512" xmlns="http://www.w3.org/2000/svg"><g><path d="m390.747 339.609c38.053-35.874 61.848-86.714 61.848-143.014 0-44.811-14.685-87.017-42.468-122.055-26.95-33.988-64.852-58.416-106.722-68.784-5.355-1.324-10.782 1.942-12.11 7.303-1.327 5.361 1.942 10.783 7.304 12.111 78.895 19.536 133.996 90.029 133.996 171.425 0 97.375-79.22 176.595-176.595 176.595-97.374 0-176.595-79.22-176.595-176.595 0-81.396 55.102-151.889 133.997-171.425 5.361-1.328 8.63-6.75 7.303-12.111-1.328-5.361-6.751-8.632-12.111-7.303-41.87 10.368-79.771 34.796-106.721 68.784-27.783 35.038-42.468 77.244-42.468 122.055 0 56.299 23.795 107.14 61.847 143.013l-52.354 100.128c-2.553 4.883-.675 10.911 4.199 13.48l.36.19c2.236 1.179 4.834 1.466 7.276.806l72.558-19.644 25.282 70.795c1.336 3.741 4.761 6.337 8.724 6.613.233.016.465.024.696.024 3.702 0 7.126-2.053 8.859-5.366l59.148-113.121 59.149 113.121c1.732 3.314 5.157 5.367 8.858 5.366.232 0 .464-.008.696-.024 3.964-.275 7.388-2.872 8.725-6.613l25.281-70.795 72.558 19.645c2.439.662 5.039.374 7.276-.806l.36-.19c4.874-2.569 6.752-8.597 4.198-13.48zm-201.027 137.501-20.703-57.973c-1.755-4.914-6.996-7.654-12.031-6.289l-59.946 16.23 39.842-76.197c27.639 21.117 61.016 35.077 97.351 39.098zm165.294-64.262c-5.036-1.363-10.276 1.375-12.031 6.289l-20.703 57.973-44.514-85.131c36.335-4.021 69.712-17.981 97.351-39.098l39.842 76.197z"/><circle cx="256" cy="10" r="10"/><path d="m109.405 196.595c0 80.832 65.762 146.595 146.595 146.595s146.595-65.762 146.595-146.595-65.762-146.595-146.595-146.595-146.595 65.762-146.595 146.595zm273.19 0c0 69.805-56.79 126.595-126.595 126.595s-126.595-56.79-126.595-126.595 56.79-126.595 126.595-126.595 126.595 56.79 126.595 126.595z"/><path d="m246.996 142.783-20.602 42.632-46.176-10.474c-3.61-.817-7.374.423-9.789 3.226-2.414 2.804-3.084 6.712-1.74 10.159l18.611 47.729h-1.3c-5.523 0-10 4.477-10 10s4.477 10 10 10h140c5.522 0 10-4.477 10-10s-4.478-10-10-10h-1.3l18.611-47.729c1.345-3.447.676-7.355-1.739-10.159-2.414-2.804-6.179-4.043-9.789-3.227l-46.176 10.474-20.603-42.632c-1.669-3.454-5.168-5.649-9.004-5.649-3.836.001-7.335 2.196-9.004 5.65zm24.063 58.494c2.026 4.192 6.677 6.431 11.216 5.401l35.559-8.065-14.599 37.443h-94.467l-14.6-37.443 35.559 8.065c4.539 1.028 9.19-1.209 11.216-5.401l15.057-31.161z"/></g></svg>