<svg id="Capa_1" enable-background="new 0 0 506.415 506.415" height="512" viewBox="0 0 506.415 506.415" width="512" xmlns="http://www.w3.org/2000/svg"><path d="m253.208 46.318c-50.848 0-92.216 41.368-92.216 92.216 0 31.681 15.971 60.771 42.722 77.817.002.002.004.003.007.005 14.781 9.417 31.893 14.394 49.487 14.394s34.707-4.977 49.487-14.394c.002-.002.004-.003.007-.005 26.751-17.047 42.722-46.136 42.722-77.817 0-50.848-41.368-92.216-92.216-92.216zm-33.744 156.079c5.587-37.745 61.901-37.744 67.488 0-10.353 5.48-21.906 8.353-33.744 8.353s-23.391-2.873-33.744-8.353zm33.31-90.818c11.409 0 20.691 9.282 20.691 20.69s-9.282 20.69-20.691 20.69-20.69-9.282-20.69-20.69 9.281-20.69 20.69-20.69zm51.537 78.008c-3.466-9.908-9.874-18.708-18.19-25.101-1.53-1.176-3.113-2.28-4.759-3.286 8.193-8.093 12.636-19.519 12.051-31.021-1.205-23.688-23.423-41.716-46.826-38.13-18.838 2.887-33.463 18.738-34.449 38.13-.592 11.644 4.008 23.256 12.387 31.35-10.349 6.495-18.387 16.52-22.419 28.059-13.422-13.393-21.113-31.601-21.113-51.053 0-39.82 32.396-72.216 72.216-72.216s72.216 32.396 72.216 72.216c-.001 19.451-7.692 37.659-21.114 51.052z"/><path d="m442.016 360.074v-329.949c0-16.611-13.514-30.125-30.126-30.125h-317.365c-16.611 0-30.125 13.514-30.125 30.125v434.408c0 10.924 5.657 20.692 15.132 26.129s20.763 5.392 30.194-.121l19.167-11.202c3.151-1.842 7.067-1.842 10.219 0l39.292 22.964c9.294 5.432 21.108 5.433 30.403 0l39.292-22.965c3.152-1.842 7.067-1.842 10.219 0l39.292 22.964c9.375 5.48 21.026 5.481 30.403 0l39.292-22.965c3.151-1.843 7.068-1.841 10.218 0l19.167 11.203c9.431 5.512 20.719 5.557 30.194.12 9.476-5.437 15.132-15.205 15.132-26.129v-23.537c0-12.84-20-12.859-20 0v23.537c0 7.67-8.496 12.681-15.234 8.742l-19.167-11.203c-9.376-5.479-21.026-5.479-30.402 0l-39.292 22.965c-3.153 1.842-7.067 1.842-10.219 0l-39.292-22.965c-9.376-5.479-21.025-5.479-30.402 0l-39.292 22.965c-3.151 1.842-7.067 1.842-10.218 0l-39.292-22.965c-9.376-5.479-21.026-5.48-30.402 0l-19.167 11.202c-6.739 3.939-15.235-1.071-15.235-8.742v-434.405c-.002-5.583 4.54-10.125 10.123-10.125h317.365c5.583 0 10.125 4.542 10.125 10.125v329.948c.001 12.841 20.001 12.859 20.001.001z"/><path d="m173.01 254.775c-1.729.419-2.971 1.564-3.395 3.105l-7.461 25.179-3.264-13.964c-.207-.978-.843-2.339-2.705-3.271l-.001-.001c-1.914-.956-5.578-1.2-7.979-.04-1.466.708-2.402 1.854-2.699 3.27l-3.273 14.006-7.45-25.144c-.44-1.591-1.68-2.741-3.403-3.155-2.769-.663-6.677.592-8.703 2.804-1.237 1.352-1.64 2.924-1.141 4.412l12.573 38.541c1.075 3.362 5.148 4.839 8.655 4.838.152 0 .304-.002.454-.008 4.008-.148 6.933-2.054 7.642-5.011l1.333-6.075 1.341 6.113c.684 2.849 3.474 4.749 7.282 4.957 3.645.202 8.162-1.2 9.457-4.804l12.575-38.545c.509-1.54.102-3.133-1.146-4.486-2.008-2.176-5.911-3.395-8.692-2.721z"/><path d="m203.635 254.083c-.002 0-.004 0-.005 0-4.13.001-7.405 1.897-8.352 4.856l-11.781 38.648c-.335 1.333-.033 2.651.874 3.813 1.858 2.383 5.707 3.414 7.259 3.414 3.689 0 4.811-2.068 5.153-3.308l1.748-6.425h10.277l1.75 6.431c.589 2.138 2.488 3.351 4.999 3.351.736 0 1.525-.104 2.35-.32 3.489-.915 6.755-3.662 5.938-6.952l-11.855-38.681c-.943-2.931-4.222-4.827-8.355-4.827zm1.999 29.415h-3.992l1.996-7.328z"/><path d="m252.45 259.586v13.366l-6.463-12.329c-1.341-2.582-2.55-4.138-3.806-4.898-1.979-1.195-6.74-1.866-9.698-.198-1.592.898-2.468 2.362-2.468 4.122v40.449l.098.302c1.024 3.149 3.446 4.714 6.832 4.424 3.392.292 5.808-1.275 6.832-4.425l.098-.301v-14.007l8.253 15.03c1.313 2.399 5.006 3.762 8.12 3.762.755 0 1.477-.08 2.122-.245 2.468-.631 3.941-2.447 3.941-4.856v-40.195c0-3.018-2.85-5.125-6.93-5.125s-6.931 2.107-6.931 5.124z"/><path d="m286.733 303.775c.994.543 2.771.934 4.617.934 1.592 0 3.236-.29 4.472-1.023 1.468-.87 2.276-2.264 2.276-3.925v-32.55h6.722c2.936 0 5.066-2.656 5.066-6.314 0-3.639-2.131-6.281-5.066-6.281h-27.302c-2.936 0-5.066 2.642-5.066 6.281 0 3.659 2.131 6.314 5.066 6.314h6.722v32.55c-.001 1.709.885 3.135 2.493 4.014z"/><path d="m344.825 267.211c2.935 0 5.065-2.656 5.065-6.315 0-3.639-2.13-6.28-5.065-6.28h-22.432c-3.268-.2-5.563 1.455-6.31 4.567l-.055.23v40.604l.055.23c.705 2.939 2.794 4.584 5.775 4.584.175 0 .354-.006.535-.017h22.432c2.935 0 5.065-2.641 5.065-6.28 0-3.659-2.13-6.315-5.065-6.315h-14.938v-6.744h7.48c1.586 0 2.968-.719 3.891-2.023.72-1.018 1.117-2.35 1.117-3.751 0-3.366-2.106-5.809-5.008-5.809h-7.48v-6.681z"/><path d="m373.896 254.616h-11.138c-3.187-.148-5.476 1.473-6.278 4.451l-.069.255v40.788l.069.255c.801 2.977 3.072 4.603 6.277 4.45 1.217.001 2.5.043 3.819.086 1.478.048 2.997.097 4.527.097 5.502 0 11.139-.636 15.4-4.262 4.417-3.759 5.991-13.335 5.991-21.044 0-7.687-1.574-17.239-5.991-20.997-3.18-2.707-7.422-4.079-12.607-4.079zm3.688 16.915v16.369c0 1.476-.341 2.514-1.042 3.173-1.286 1.209-3.938 1.333-6.271 1.249v-25.213c2.33-.081 4.983.04 6.27 1.249.702.659 1.043 1.697 1.043 3.173z"/><path d="m156.153 343.582c0 5.523 4.477 10 10 10h99.992c12.84 0 12.859-20 0-20h-99.992c-5.523 0-10 4.477-10 10z"/><path d="m340.262 368.71h-174.109c-12.811 0-12.836 20 0 20h174.109c12.811 0 12.836-20 0-20z"/><path d="m340.262 403.839h-174.109c-12.811 0-12.836 20 0 20h174.109c12.811 0 12.836-20 0-20z"/><path d="m440.333 394.873c-3.083-4.499-9.296-5.796-13.87-2.76-4.545 3.017-5.765 9.334-2.76 13.86 3.01 4.534 9.338 5.794 13.86 2.77 4.559-3.049 5.754-9.307 2.77-13.87z"/><path d="m297.722 347.403c2.068 5.044 8.027 7.484 13.05 5.41 5.033-2.079 7.504-8.029 5.41-13.06-2.094-5.033-8.013-7.478-13.05-5.4-5.029 2.074-7.504 8.022-5.41 13.05z"/></svg>